# xmcd
#
# Track frame offsets:
# 150
# 16686
# 38573
# 52461
# 68843
# 87376
# 103054
# 114802
# 131983
# 146123
#
# Disc length: 2119 seconds
#
#
# Revision: 0
# Processed by: cddbd v1.5.1PL0 Copyright (c) Steve Scherf et al.
# Submitted via: FreeRIP 2.51 
#
DISCID=8c08450a
DTITLE=Mac McAnally - Semi-True Stories
DYEAR=2004
DGENRE=Acoustic
TTITLE0=Meanwhile
TTITLE1=Last Man Standing
TTITLE2=The Far Side of Heaven
TTITLE3=The Opposite of Love
TTITLE4=Hard Way to Go
TTITLE5=Semi-True Stories
TTITLE6=Come On if You're Comin'
TTITLE7=When Trouble Comes Around
TTITLE8=Stephon (The Alternative Lifestyle Reindeer)
TTITLE9=Home Again
EXTD=http://www.macmcanally.com
EXTT0=
EXTT1=
EXTT2=
EXTT3=
EXTT4=
EXTT5=
EXTT6=
EXTT7=
EXTT8=
EXTT9=
PLAYORDER=
